<?xml version="1.0" encoding="utf-8"?>
<!-- Generator: Adobe Illustrator 16.0.0, SVG Export Plug-In . SVG Version: 6.00 Build 0)  -->
<!DOCTYPE svg PUBLIC "-//W3C//DTD SVG 1.0//EN" "http://www.w3.org/TR/2001/REC-SVG-20010904/DTD/svg10.dtd">
<svg version="1.0" id="Ebene_1" xmlns="http://www.w3.org/2000/svg" xmlns:xlink="http://www.w3.org/1999/xlink" x="0px" y="0px"
	 width="436.264px" height="412.087px" viewBox="0 0 436.264 412.087" enable-background="new 0 0 436.264 412.087"
	 xml:space="preserve">
<g>
	<g>
		<path fill="#75684D" d="M40.771,119.214c0-6.769-1.128-80.089-1.128-83.098c0-4.136-1.88-9.024-11.279-9.024H15.203
			c-2.257,0-3.008-0.752-3.008-2.633v-9.774c0-1.505,0.75-2.257,3.008-2.257c4.511,0,15.791,1.127,43.993,1.127
			c25.193,0,37.601-1.127,42.489-1.127c2.255,0,3.007,0.752,3.007,2.257v9.774c0,1.881-0.752,2.633-2.633,2.633H86.269
			c-7.521,0-10.528,2.632-10.528,11.657c0,5.638-1.128,64.297-1.128,82.721v18.801h6.769c6.016,0,10.152-1.506,15.416-5.264
			c8.271-6.016,77.834-94.755,81.217-99.644c3.382-5.264,1.502-9.024-3.382-9.024h-5.267c-1.501,0-1.88-0.752-1.88-2.631V15.06
			c0-1.88,0.754-2.633,2.256-2.633c4.515,0,19.927,1.127,37.224,1.127c10.904,0,24.065-1.127,28.576-1.127
			c1.881,0,2.635,0.752,2.635,1.88v10.152c0,1.881-1.13,2.633-3.01,2.633h-7.896c-5.266,0-13.912,2.256-20.68,7.145
			c-13.912,10.151-71.441,76.706-87.608,97.762c3.384,4.136,97.386,120.699,100.767,124.833c6.394,7.896,17.297,9.4,26.321,9.4
			h13.16c1.882,0,2.632,1.13,2.632,2.632v9.399c0,1.882-0.75,2.634-3.007,2.634c-3.76,0-18.048-1.128-46.249-1.128
			c-31.21,0-45.871,1.128-51.137,1.128c-1.5,0-2.255-0.752-2.255-2.256v-9.777c0-1.502,0.755-2.255,2.255-2.255h5.642
			c7.146,0,7.896-6.394,6.016-10.152c-3.385-7.52-69.938-95.505-74.825-99.266c-6.016-4.888-10.904-5.641-16.545-5.641h-7.144
			v27.072c0,18.801,0.752,74.075,1.128,79.34c0.375,4.888,3.76,8.271,8.648,8.271h16.544c1.88,0,3.007,0.752,3.007,2.257v9.774
			c0,1.506-0.375,2.634-2.255,2.634c-4.512,0-15.793-1.128-42.489-1.128c-29.705,0-41.737,1.128-45.121,1.128
			c-1.88,0-2.633-0.752-2.633-2.634v-9.774c0-1.88,1.127-2.257,2.633-2.257h15.416c6.768,0,9.399-3.007,10.152-6.767
			c0.377-3.385,1.128-71.443,1.128-118.443V119.214z"/>
	</g>
	<g>
		<path fill="#75684D" d="M288.936,300.805c0,17.673,0.376,68.812,0.751,74.073c0.752,8.272,4.515,12.032,12.41,12.032h24.064
			c2.63,0,3.005,1.13,3.005,2.639v9.021c0,1.881-0.375,3.011-3.383,3.011c-5.264,0-16.919-1.13-52.264-1.13
			c-33.089,0-47.753,1.13-51.89,1.13c-2.632,0-3.009-1.13-3.009-2.639v-9.393c0-1.881,0.377-2.639,2.256-2.639h16.17
			c12.781,0,15.415-1.881,16.543-12.032c0.378-3.76,1.505-62.414,1.505-106.03v-43.241c0-24.821-0.377-65.801-0.752-69.562
			c-0.753-7.521-4.515-8.272-14.665-8.272h-21.432c-1.88,0-2.256-0.75-2.256-3.01v-9.022c0-1.88,0.375-2.631,2.256-2.631
			c4.136,0,17.672,1.123,53.392,1.123c6.771,0,28.953-1.123,41.361-1.123c42.488,0,62.416,4.133,83.848,18.796
			c17.676,12.032,28.576,33.093,28.576,54.52c0,47.38-35.72,76.706-95.502,76.706c-13.913,0-28.953-0.373-40.985-1.873V300.805z
			 M288.936,267.718c7.521,2.259,19.929,3.381,34.593,3.381c22.938,0,43.241-12.404,53.016-25.566
			c8.271-10.903,9.776-24.814,9.776-37.977c0-49.258-45.87-62.414-68.056-62.414c-6.394,0-21.809,0-29.329,2.631V267.718z"/>
	</g>
	<path fill="none" stroke="#75684D" stroke-miterlimit="10" d="M297.223,230.914"/>
	<path fill="none" stroke="#75684D" stroke-miterlimit="10" d="M390.286,355.135"/>
</g>
</svg>
